<svg width="16" height="16" viewBox="0 0 16 16" fill="none" xmlns="http://www.w3.org/2000/svg">
<path d="M8.00016 1.33331C9.8115 1.33331 10.0375 1.33998 10.7482 1.37331C11.4582 1.40665 11.9415 1.51798 12.3668 1.68331C12.8068 1.85265 13.1775 2.08198 13.5482 2.45198C13.8872 2.78524 14.1495 3.18837 14.3168 3.63331C14.4815 4.05798 14.5935 4.54198 14.6268 5.25198C14.6582 5.96265 14.6668 6.18865 14.6668 7.99998C14.6668 9.81131 14.6602 10.0373 14.6268 10.748C14.5935 11.458 14.4815 11.9413 14.3168 12.3666C14.1499 12.8118 13.8876 13.2151 13.5482 13.548C13.2148 13.8869 12.8117 14.1491 12.3668 14.3166C11.9422 14.4813 11.4582 14.5933 10.7482 14.6266C10.0375 14.658 9.8115 14.6666 8.00016 14.6666C6.18883 14.6666 5.96283 14.66 5.25216 14.6266C4.54216 14.5933 4.05883 14.4813 3.6335 14.3166C3.18838 14.1496 2.78518 13.8873 2.45216 13.548C2.1131 13.2148 1.85078 12.8116 1.6835 12.3666C1.51816 11.942 1.40683 11.458 1.3735 10.748C1.34216 10.0373 1.3335 9.81131 1.3335 7.99998C1.3335 6.18865 1.34016 5.96265 1.3735 5.25198C1.40683 4.54131 1.51816 4.05865 1.6835 3.63331C1.85032 3.1881 2.1127 2.78486 2.45216 2.45198C2.78528 2.1128 3.18845 1.85047 3.6335 1.68331C4.05883 1.51798 4.5415 1.40665 5.25216 1.37331C5.96283 1.34198 6.18883 1.33331 8.00016 1.33331ZM8.00016 4.66665C7.11611 4.66665 6.26826 5.01784 5.64314 5.64296C5.01802 6.26808 4.66683 7.11592 4.66683 7.99998C4.66683 8.88403 5.01802 9.73188 5.64314 10.357C6.26826 10.9821 7.11611 11.3333 8.00016 11.3333C8.88422 11.3333 9.73206 10.9821 10.3572 10.357C10.9823 9.73188 11.3335 8.88403 11.3335 7.99998C11.3335 7.11592 10.9823 6.26808 10.3572 5.64296C9.73206 5.01784 8.88422 4.66665 8.00016 4.66665ZM12.3335 4.49998C12.3335 4.27897 12.2457 4.067 12.0894 3.91072C11.9331 3.75444 11.7212 3.66665 11.5002 3.66665C11.2791 3.66665 11.0672 3.75444 10.9109 3.91072C10.7546 4.067 10.6668 4.27897 10.6668 4.49998C10.6668 4.72099 10.7546 4.93295 10.9109 5.08924C11.0672 5.24552 11.2791 5.33331 11.5002 5.33331C11.7212 5.33331 11.9331 5.24552 12.0894 5.08924C12.2457 4.93295 12.3335 4.72099 12.3335 4.49998ZM8.00016 5.99998C8.5306 5.99998 9.0393 6.21069 9.41438 6.58577C9.78945 6.96084 10.0002 7.46955 10.0002 7.99998C10.0002 8.53041 9.78945 9.03912 9.41438 9.41419C9.0393 9.78927 8.5306 9.99998 8.00016 9.99998C7.46973 9.99998 6.96102 9.78927 6.58595 9.41419C6.21088 9.03912 6.00016 8.53041 6.00016 7.99998C6.00016 7.46955 6.21088 6.96084 6.58595 6.58577C6.96102 6.21069 7.46973 5.99998 8.00016 5.99998Z" fill="#BE202F"/>
</svg>
